<svg xmlns="http://www.w3.org/2000/svg" viewBox="0 0 749.43 474.26">
  <defs>
    <style>
      .a {
        fill: #596876;
      }

      .b {
        fill: #bcd1e2;
      }

      .c {
        fill: #5e6771;
      }

      .d {
        fill: #ec272b;
      }
    </style>
  </defs>
  <title>utbs-logo</title>
  <g>
    <g>
      <g>
        <path class="a" d="M516,228.37q-4.26,5.87-26.6,32.11-23.21,27-49.53,27a13.85,13.85,0,0,1-10.61-4.84,16.85,16.85,0,0,1-4.38-11.72q0-6.63,5.94-17.58l22.07-40.51H432.25l4.53-4.08h22.63a105.19,105.19,0,0,0,25.19-20q7.06-7.61,19.52-24.84h3.12l-28.59,44.85h21.23l-1.7,4.08H477l-29.43,46.38q-6.24,9.68-6.23,13.49a10.94,10.94,0,0,0,2.41,6.37c1.6,2.22,3.25,3.32,5,3.32q8.2,0,20.94-8.92a91,91,0,0,0,17-15q7.94-8.92,27.18-31.85Z" transform="translate(-25 -18.56)"/>
        <path class="a" d="M636.85,228.37q-53.76,59.11-74.43,59.11-13.86,0-21.5-14.78Q528.74,287.49,514,287.48q-19,0-19-25,0-19.09,17.55-36.18,19.23-18.86,45.55-18.86,9.9,0,14.44,6.12c2.26-2.54,4.24-3.82,5.95-3.82a57.23,57.23,0,0,1,5.93.77,55.43,55.43,0,0,0,6,.76c.75,0,2.31-1.1,4.66-3.31s3.92-3.4,4.67-3.57L562.7,267.1q-4.82,8.16-4.81,11.72c0,3.4,2.08,5.09,6.23,5.09q9.33,0,37.07-24.7a438.06,438.06,0,0,0,33.4-32.62Zm-68.49-10.19q0-6.12-5.94-6.12-16.7,0-34.81,26.25-16.12,23.44-16.13,37.19c0,5.62,1.89,8.41,5.67,8.41q11.31,0,22.35-16.81Q568.36,222.78,568.36,218.18Z" transform="translate(-25 -18.56)"/>
        <path class="a" d="M740.71,129q0,23.7-35.66,54.78-25.47,22.17-46.13,31.6-2.83,5.85-5.66,11.21,22.65-19.12,36.5-19.12,11.61,0,11.61,10.71,0,8.15-18.54,33.51t-18.53,25.6c0,3.06,1.31,4.58,4,4.58q8.49,0,30-20.63,4.8-4.58,33.11-34.65l2.26,1.78Q704.49,261,697.41,267.61q-21.23,19.88-34,19.87a18.07,18.07,0,0,1-11.19-3.31,10.35,10.35,0,0,1-4.37-8.67q0-6.35,18.24-31.08t18.26-27.52c0-1.7-.76-2.54-2.27-2.54q-7.35,0-17,7.39-8.77,6.12-13,12.86T628.92,273q-7.35,12.5-11.31,12.48a30,30,0,0,1-5.66-.89,42.52,42.52,0,0,0-4.53-.89q-1.71,0-4.53,2a33,33,0,0,1-6.23,4.6q19-32.62,30-51a720.21,720.21,0,0,1,45.28-66.76q39.33-51.21,58.58-51.21Q740.71,121.36,740.71,129ZM728,132.82c0-4.24-.94-6.37-2.83-6.37q-7.36,0-25.47,25.49-8.77,12.21-37.35,56.56,29.13-17.07,48.68-41.28Q728,146.32,728,132.82Z" transform="translate(-25 -18.56)"/>
      </g>
      <g>
        <path class="b" d="M516,224.16q-4.26,5.86-26.6,32.1-23.21,27-49.53,27a13.85,13.85,0,0,1-10.61-4.84,16.83,16.83,0,0,1-4.38-11.72q0-6.63,5.94-17.58l22.07-40.52H432.25l4.53-4.07h22.63a105.19,105.19,0,0,0,25.19-20q7.06-7.6,19.52-24.84h3.12l-28.59,44.85h21.23l-1.7,4.07H477L447.53,255q-6.24,9.69-6.23,13.5a10.94,10.94,0,0,0,2.41,6.37q2.4,3.31,5,3.32,8.2,0,20.94-8.92a91.31,91.31,0,0,0,17-15q7.94-8.92,27.18-31.85Z" transform="translate(-25 -18.56)"/>
        <path class="b" d="M636.85,224.16q-53.76,59.11-74.43,59.11-13.86,0-21.5-14.78Q528.74,283.28,514,283.27q-19,0-19-25,0-19.11,17.55-36.19,19.23-18.84,45.55-18.85,9.9,0,14.44,6.12,3.39-3.82,5.95-3.82a59,59,0,0,1,5.93.76,56.65,56.65,0,0,0,6,.77c.75,0,2.31-1.1,4.66-3.31s3.92-3.4,4.67-3.57L562.7,262.89q-4.82,8.16-4.81,11.72c0,3.4,2.08,5.09,6.23,5.09q9.33,0,37.07-24.71a436.2,436.2,0,0,0,33.4-32.61ZM568.36,214q0-6.11-5.94-6.1-16.7,0-34.81,26.24-16.12,23.44-16.13,37.2,0,8.4,5.67,8.4,11.31,0,22.35-16.81Q568.36,218.55,568.36,214Z" transform="translate(-25 -18.56)"/>
        <path class="b" d="M740.71,124.79q0,23.7-35.66,54.78-25.47,22.17-46.13,31.6-2.83,5.85-5.66,11.21,22.65-19.11,36.5-19.12,11.61,0,11.61,10.7,0,8.17-18.54,33.51T664.3,273.08c0,3.06,1.31,4.58,4,4.58q8.49,0,30-20.63,4.8-4.59,33.11-34.65l2.26,1.78q-29.14,32.61-36.22,39.24-21.23,19.88-34,19.87A18.13,18.13,0,0,1,652.26,280a10.34,10.34,0,0,1-4.37-8.66q0-6.36,18.24-31.08t18.26-27.53c0-1.69-.76-2.54-2.27-2.54q-7.35,0-17,7.39-8.77,6.11-13,12.86t-23.2,38.35q-7.35,12.48-11.31,12.48a30,30,0,0,1-5.66-.89,39.79,39.79,0,0,0-4.53-.89c-1.14,0-2.65.67-4.53,2a34.28,34.28,0,0,1-6.23,4.59q19-32.62,30-51a720.21,720.21,0,0,1,45.28-66.76q39.33-51.21,58.58-51.22C737.31,117.14,740.71,119.7,740.71,124.79ZM728,128.61c0-4.24-.94-6.37-2.83-6.37q-7.36,0-25.47,25.48-8.77,12.22-37.35,56.56Q691.45,187.23,711,163,728,142.12,728,128.61Z" transform="translate(-25 -18.56)"/>
      </g>
      <g>
        <path class="a" d="M609.66,137.24q-21.55-11.55-49.87-11.55-23.25,0-37.4,3.37-11.06,2.58-41.65,13.19-19.55-13.5-33.15-18.09-15-5.09-38.25-5.09h-13v1.53h15.28q22.64,0,61.13,24.71-34.26,19.88-58.3,43.06a269,269,0,0,0-32.83,38.73Q368,246.72,361.5,256.65q-20.67,28.05-39.62,28-10.49,0-10.47-11.72,0-10.71,13.59-28,16.68-20.38,25.18-30.57,11.6-14,13.58-17.33a35.87,35.87,0,0,0,4.82-18.59q0-27-17.55-42.43c-11.7-10.27-31-18.56-51.15-18.56-26.68,0-47.88,5.22-66,17.27.11,1.06.21,2.13.27,3.21C252.42,125.38,273.43,120,299.88,120c15.85,0,31.71,6.76,41,14s13.87,17.17,13.87,29.89q0,9.15-14.43,27.48Q322.16,214,313.11,225.15q-14.43,19.35-14.43,35.37a28.7,28.7,0,0,0,6.22,17.81q6.8,9.15,17,9.15,17.26,0,40.18-25,0,25,16.7,25,20.94,0,35.66-17.58v-4.58Q398.85,282.9,383,282.9q-4.25,0-4.25-4.08,0-10.95,31.45-58.6,23.52-35.4,69.41-68.79,55.25,53,112.47,53a51.73,51.73,0,0,0,23.52-5.4q19.26-9.47,19.26-24.1Q634.87,150.83,609.66,137.24Zm8.23,57.25a51.7,51.7,0,0,1-26,7.13q-43.29,0-106.12-55,41-18.1,73.87-18.09,27.17,0,47.54,10.7,24.63,13,24.63,35.67Q631.77,186.59,617.89,194.49Z" transform="translate(-25 -18.56)"/>
        <path class="c" d="M378.76,287.58c-5.58,0-9.82-2.11-12.61-6.28S362,271,362,262.77c-15.15,16.46-28.64,24.81-40.08,24.81-6.79,0-12.53-3.09-17.06-9.19a28.92,28.92,0,0,1-6.24-17.87c0-10.65,4.86-22.57,14.45-35.43,6-7.45,14.92-18.51,27.17-33.82,9.56-12.15,14.41-21.37,14.41-27.42,0-12.63-4.65-22.66-13.83-29.82-8.26-6.43-23.92-13.94-40.9-13.94-27,0-47.88,5.69-65.72,17.92l-.14.09v-.17c-.06-1-.15-2-.28-3.2v-.06l.05,0c17.78-11.79,38.79-17.29,66.1-17.29,22.16,0,41,9.6,51.21,18.59,11.67,10.25,17.59,24.55,17.59,42.5a36.07,36.07,0,0,1-4.83,18.63c-1.31,2.21-5.76,7.88-13.59,17.35-6,7.2-14.7,17.77-25.19,30.57-9,11.49-13.56,20.9-13.56,28,0,3.87.87,6.8,2.59,8.73s4.34,2.89,7.78,2.89c6.27,0,12.77-2.35,19.33-7s13.36-11.71,20.21-21c4.23-6.46,10.8-16.13,20.09-29.55a270.52,270.52,0,0,1,32.84-38.75c15.94-15.36,35.51-29.82,58.18-43-25.46-16.33-46-24.62-60.94-24.62H396.21V119h13.13c15.42,0,28.3,1.72,38.28,5.1,9,3,20.16,9.12,33.14,18.07,20.29-7,34.29-11.47,41.61-13.18,9.39-2.23,22-3.37,37.42-3.37,18.8,0,35.59,3.89,49.92,11.56h0c8.38,4.52,14.75,10,18.94,16.25A38,38,0,0,1,635,174.93c0,9.75-6.5,17.89-19.32,24.19a52,52,0,0,1-23.56,5.4c-19,0-38.1-4.46-56.77-13.26s-37.39-22.14-55.71-39.7c-30.4,22.11-53.72,45.23-69.32,68.71-20.86,31.6-31.43,51.3-31.43,58.55,0,2.68,1.35,4,4.15,4,10.49,0,21-5.9,31.34-17.54l.17-.2v4.88l0,0C404.71,281.65,392.68,287.58,378.76,287.58Zm-16.6-25.31v.25c0,8.26,1.4,14.54,4.16,18.67s6.93,6.2,12.44,6.2c13.85,0,25.82-5.9,35.56-17.52v-4.29C404,277.14,393.5,283,383,283c-2.89,0-4.35-1.41-4.35-4.18,0-7.29,10.59-27,31.47-58.65,15.62-23.53,39-46.68,69.43-68.82l.07,0,.06.06c18.32,17.57,37.07,30.94,55.71,39.73s37.72,13.24,56.69,13.24A51.93,51.93,0,0,0,615.56,199c12.75-6.27,19.21-14.35,19.21-24a37.79,37.79,0,0,0-6.28-21.42c-4.18-6.24-10.53-11.69-18.88-16.19h0c-14.29-7.65-31.06-11.53-49.82-11.53-15.42,0-28,1.13-37.38,3.37-7.32,1.7-21.33,6.14-41.63,13.18l0,0,0,0c-13-9-24.13-15-33.13-18.07-10-3.38-22.82-5.1-38.22-5.1H396.41v1.34h15.18c15,0,35.63,8.32,61.18,24.73l.14.08-.14.08c-22.72,13.19-42.33,27.67-58.28,43.05a269.5,269.5,0,0,0-32.82,38.72c-9.29,13.42-15.86,23.09-20.09,29.55-6.86,9.31-13.68,16.39-20.26,21.05s-13.13,7-19.44,7c-7,0-10.57-4-10.57-11.82,0-7.12,4.58-16.57,13.61-28.09,10.48-12.81,19.19-23.38,25.19-30.58,7.83-9.45,12.26-15.12,13.57-17.31a36,36,0,0,0,4.8-18.54c0-17.89-5.89-32.14-17.51-42.36A74.25,74.25,0,0,0,328.61,123a81.55,81.55,0,0,0-28.73-5.42c-27.25,0-48.2,5.47-65.95,17.22.12,1.12.2,2.07.26,3,17.85-12.18,38.73-17.86,65.69-17.86,17,0,32.74,7.54,41,14,9.23,7.19,13.91,17.28,13.91,30,0,6.09-4.87,15.36-14.46,27.54-12.25,15.31-21.14,26.37-27.17,33.82-9.56,12.82-14.4,24.7-14.4,35.31a28.67,28.67,0,0,0,6.2,17.75c4.49,6.05,10.17,9.12,16.9,9.12,11.43,0,24.92-8.39,40.11-24.94Zm229.69-60.55c-14.38,0-30.6-4.64-48.22-13.77s-37.11-23-58-41.29l-.12-.1.14-.06c27.24-12,52.1-18.1,73.91-18.1,18,0,34.06,3.6,47.58,10.71,8.19,4.32,14.41,9.51,18.51,15.44a35.05,35.05,0,0,1,6.17,20.32c0,7.81-4.68,14.44-13.92,19.7h0A52,52,0,0,1,591.85,201.72ZM485.91,146.61c20.8,18.21,40.24,32,57.81,41.16s33.78,13.75,48.13,13.75a51.78,51.78,0,0,0,26-7.12h0c9.18-5.22,13.83-11.79,13.83-19.53a34.87,34.87,0,0,0-6.14-20.2c-4.08-5.91-10.28-11.08-18.44-15.39-13.5-7.09-29.48-10.69-47.49-10.69C537.86,128.59,513.07,134.66,485.91,146.61Z" transform="translate(-25 -18.56)"/>
      </g>
      <path class="b" d="M609.66,134.29q-21.55-11.53-49.87-11.54-23.25,0-37.4,3.37-11.06,2.58-41.65,13.19-19.55-13.5-33.15-18.09-15-5.09-38.25-5.09h-13v1.53h15.28q22.64,0,61.13,24.71-34.26,19.88-58.3,43.06a269,269,0,0,0-32.83,38.73Q368,243.78,361.5,253.72q-20.67,28-39.62,28-10.49,0-10.47-11.72,0-10.69,13.59-28,16.68-20.37,25.18-30.58,11.6-14,13.58-17.32a35.84,35.84,0,0,0,4.82-18.59q0-27-17.55-42.43c-11.7-10.27-31-18.56-51.15-18.56-26.84,0-48.13,5.29-66.37,17.49,0,.06,0,.12,0,.18.11,1,.22,2,.32,3,18.37-12.66,39.45-18.1,66-18.1,15.85,0,31.71,6.76,41,14s13.87,17.18,13.87,29.9q0,9.15-14.43,27.47Q322.16,211,313.11,222.21q-14.43,19.35-14.43,35.37a28.68,28.68,0,0,0,6.22,17.81q6.8,9.15,17,9.16,17.26,0,40.18-25,0,25,16.7,25,20.94,0,35.66-17.59v-4.58Q398.85,280,383,280q-4.25,0-4.25-4.07,0-11,31.45-58.61,23.52-35.42,69.41-68.79,55.25,53,112.47,53a51.85,51.85,0,0,0,23.52-5.38q19.26-9.48,19.26-24.1Q634.87,147.88,609.66,134.29Zm8.23,57.26a51.7,51.7,0,0,1-26,7.13q-43.29,0-106.12-55,41-18.09,73.87-18.09,27.17,0,47.54,10.71,24.63,13,24.63,35.67Q631.77,183.65,617.89,191.55Z" transform="translate(-25 -18.56)"/>
    </g>
    <g>
      <path class="d" d="M41.29,196v0l.13-.13Z" transform="translate(-25 -18.56)"/>
      <path class="d" d="M41.26,196h0v0Z" transform="translate(-25 -18.56)"/>
    </g>
    <path class="d" d="M233.53,132c-5.08,10.36-13.06,27.77-19.06,32.6-3,2.41-16.88,15.67-22.11,20.15s-10.1,8-10.1,8-5.52,4.42-9.84,4.42c-1.37,0-2.56.06-3.59.15l-36.54-8.22c-4.32-1.37-6.74-2.66-8.17-3.95-1.17-1.68-1.72-3.56-.79-5.45,2.24-4.56,12-1,16.87-.34,1.84.47,4.07,1.06,6.28,1.82,6.52-.44,19.9,2.51,24.51,4,3.87-5.08,14.37-17.74,21.19-21a25.47,25.47,0,0,0-13.56,6.93c-10.18,10-8.25,9.55-17.83,7.93-2.12-.36-8-1.61-13-1.13a2.12,2.12,0,0,1-1.18-.25,11.24,11.24,0,0,0-2.53-.81c2-4.95,4.24-16,5.54-20.18,1.52-4.83,8.82-17.47,12.09-20.64-3.77.42-12.55,10.57-18.42,15.69-5.72,5-13.29,3.64-16,.78-3.65-3.82-1.52-4.06,5.71-11.51,8-8.29,8.71-21.56,15.65-27.43,7.7-6.5,15.37-13.54,24.37-17.81s26-5.26,37.07-13.39c2.2-1.61,8.26-7.61,15.47-15.21l-1.81-13.81-85.17,9.81-5.37-44.63L25,31l3.52,34L41.29,196c.24-.4,5.86-9.77,7.2-15.51s5.59-16.06,6.59-20.23.75-8,3.41-7.52,4.27,1.51,3.92,6.55c-.14,2-1,5.21-1.1,7.84,6.31-11.24,6.25-13.23,12.78-18.71s11.69-14.29,14.77-13,2.19,3.34-.27,6.72c-3.07,4.22-10.23,11.34-10.23,11.34s15.29-11.16,19.43-14,8.85-8.27,10.82-6.66,2.37,4-.18,6.41-7.18,8.16-12.36,12.13C92.22,154.28,84,163.63,84,163.63s14.1-6.8,17.78-9.82c2.51-2.07,9.69-4.08,12.12-6s6.55-1.8,5.57,1.58-12,9.07-14.12,10.93-15.15,12.82-15.15,12.82,14.18-4.2,17.8-5.71,7.82-3.74,8.55-1.35-5.45,7.76-9.18,9.77-14.8,4.6-17.93,7.7-8.27,12.07-14.18,18.56-14.75,5.94-18.69,10.76c-1.48,1.8-7.25,8.16-10.9,12.91a19,19,0,0,0-1.27,1.93l5.45,55.86,201-22.37Zm-115.8,81.4c-4,.08-7.39-1.76-6.6-5,.32-1.36,1.85-2.5,3.52-3.38l21,3.38c-1.79.88-3.65,1.75-4.81,2.18C128,211.58,121.74,213.3,117.73,213.39Zm24.3-7.72-22.55-2.62.22-.06s-4.26-.48-5.9-.87-8.59-1.83-9.28-5c-.51-2.37,1.13-5.79,5.13-7.13,2.73-.92,8.58-.47,13.65.18l37.79,10.44a14.71,14.71,0,0,1-5.11,2.92C152.07,204.67,144.94,205.41,142,205.67Z" transform="translate(-25 -18.56)"/>
    <g>
      <path class="b" d="M282.11,447.29c0-4.41-3-6.88-8.23-6.88H263.74v14h10.09C278.86,454.4,282.11,451.61,282.11,447.29Z" transform="translate(-25 -18.56)"/>
      <path class="b" d="M36.22,415.79v77H774.35v-77Zm49.45,60.3c-5.89,0-10.77-2.08-15.36-6.55l-.62-.59,3.7-4.78.77.76c3.8,3.74,7.17,5.27,11.66,5.27,4.22,0,7.05-2.3,7.05-5.72,0-2.68-.63-4.8-8.6-6.62-7.69-1.82-12.81-4.6-12.81-12.24,0-6.86,5.37-11.76,12.76-11.76a18.66,18.66,0,0,1,13.27,5.05l.64.56-3.46,5-.81-.72a14.09,14.09,0,0,0-9.74-4c-3.94,0-6.69,2.21-6.69,5.37s1.34,5,9,6.8c8.62,2,12.45,5.76,12.45,12C98.89,471.14,93.45,476.09,85.67,476.09Zm106.79-.57H164.3V434.41h27.91v5.94H170.28v11.48H189.9v5.94H170.28v11.81h22.18Zm90.51,0L272.55,460.3h-8.81v15.22h-6V434.41h16.41c4.55,0,8.43,1.5,10.93,4.23a12.29,12.29,0,0,1,3,8.37A12,12,0,0,1,279,459.15l11.3,16.37Zm87.54.28h-4.9L349.4,434.41H356l12.12,32,12.18-32h6.42Zm86.33-.28h-6V434.41h6ZM557,469c-3.22,3.56-7.54,7.2-15.09,7.2-10.82,0-19-9.08-19-21.12s8.41-21.34,19.14-21.34c7.36,0,11.42,3.13,14.7,6.5l.61.62-4,4.73-.73-.76c-3.42-3.57-6.59-5.09-10.6-5.09-7.39,0-13,6.5-13,15.11s5.7,15.35,13,15.35c4.78,0,7.82-2.15,10.92-5.37l.7-.73,4,4.25Zm92.64,6.52H621.46V434.41h27.9v5.94H627.43v11.48h19.62v5.94H627.43v11.81h22.19Zm78.58.57c-5.88,0-10.76-2.08-15.34-6.55l-.61-.59,3.69-4.78.77.76c3.79,3.74,7.17,5.27,11.66,5.27,4.22,0,7-2.3,7-5.72,0-2.68-.63-4.8-8.6-6.62-7.7-1.82-12.81-4.6-12.81-12.24,0-6.86,5.37-11.76,12.76-11.76A18.67,18.67,0,0,1,740,438.91l.64.56-3.46,5-.81-.72a14.09,14.09,0,0,0-9.73-4c-3.94,0-6.7,2.21-6.7,5.37s1.35,5,9,6.8c8.61,2,12.45,5.76,12.45,12C741.44,471.14,736,476.09,728.2,476.09Z" transform="translate(-25 -18.56)"/>
    </g>
    <g>
      <path d="M49,345c0-19.27,0-22.81-.25-26.87-.26-4.31-1.27-6.34-5.46-7.23a26.33,26.33,0,0,0-4.94-.38c-1.4,0-2.16-.25-2.16-1.14s.89-1.14,2.79-1.14c6.72,0,14.71.38,17.24.38,6.22,0,11.16-.38,15.47-.38,22.94,0,27,12.3,27,19,0,10.39-6,16.6-12.93,22.18,10.4,3.55,23.07,12.55,23.07,27.38,0,13.57-10.51,27.64-33.85,27.64-3,0-14.57-.76-18.38-.76-2.91,0-10.9.38-16,.38-1.65,0-2.54-.38-2.54-1.27,0-.63.51-1,2-1a20.35,20.35,0,0,0,4.57-.51c2.53-.5,3.16-3.29,3.67-7,.64-5.32.64-15.34.64-27Zm15.21,2.16c0,1,.38,1.27.89,1.39a30.19,30.19,0,0,0,6,.39c4.18,0,7-.51,9.12-2.41,3.3-2.67,5.2-7.23,5.2-13.44,0-8.5-4.94-19.65-15.84-19.65a20.87,20.87,0,0,0-4.19.25c-.89.25-1.14.76-1.14,2.16Zm16.74,10.14c-2.67-1.9-5.59-2.79-10.53-3-2.28-.13-3.55-.13-5.45-.13-.51,0-.76.26-.76.89v30c0,8.36.38,10.52,4.44,12.17a22.87,22.87,0,0,0,9.25,1.52c5.7,0,15.34-3.05,15.34-16.23C93.23,374.63,90.57,364,80.94,357.26Z" transform="translate(-25 -18.56)"/>
      <path d="M138.61,345c0-19.27,0-22.81-.26-26.87-.25-4.31-1.26-6.34-5.44-7.23a26.45,26.45,0,0,0-5-.38c-1.39,0-2.15-.25-2.15-1.14s.88-1.14,2.78-1.14c6.72,0,14.71.38,18.26.38,4.06,0,29.29,0,31.69-.13a51.68,51.68,0,0,0,5.46-.75,11.54,11.54,0,0,1,2-.52c.64,0,.76.52.76,1.15a82.17,82.17,0,0,0-1,8.24c-.13,1.27-.38,6.84-.64,8.37-.12.63-.38,1.39-1.26,1.39s-1.14-.64-1.14-1.78A13.7,13.7,0,0,0,182,320c-.89-2.28-2.16-3.8-8.49-4.56-2.16-.26-15.47-.51-18-.51-.63,0-.89.38-.89,1.27v32.07c0,.89.13,1.4.89,1.4,2.79,0,17.37,0,20.29-.26s4.94-.63,6.08-1.9c.89-1,1.4-1.65,2-1.65s.88.26.88,1-.63,2.79-1,9.25c-.25,2.54-.5,7.61-.5,8.49s0,2.41-1.15,2.41a1,1,0,0,1-1.14-1.14,32.22,32.22,0,0,0-.5-4.56c-.64-2.53-2.42-4.44-7.11-4.95-2.4-.25-15-.38-18-.38-.63,0-.76.51-.76,1.27v10c0,4.31-.12,16,0,19.65.26,8.74,2.29,10.65,15.22,10.65,3.29,0,8.61,0,11.91-1.53s4.82-4.18,5.71-9.38c.25-1.39.51-1.9,1.39-1.9s1,1,1,2.29a100.12,100.12,0,0,1-1.65,14.07c-.89,3.29-2,3.29-6.85,3.29-19.14,0-27.63-.76-35.12-.76-2.91,0-10.9.38-16,.38-1.65,0-2.53-.38-2.53-1.27,0-.63.5-1,2-1a20.25,20.25,0,0,0,4.56-.51c2.54-.5,3.17-3.29,3.68-7,.63-5.32.63-15.34.63-27Z" transform="translate(-25 -18.56)"/>
      <path d="M283.76,348.51c.38,0,.76-.25.76-.88V345c0-19.27,0-22.81-.25-26.87-.26-4.31-1.27-6.34-5.45-7.23a26.45,26.45,0,0,0-4.95-.38c-1.39,0-2.16-.25-2.16-1.14s.9-1.14,2.67-1.14c6.84,0,14.83.38,18.26.38,3,0,11-.38,16-.38,1.78,0,2.66.25,2.66,1.14s-.76,1.14-2.28,1.14a22.9,22.9,0,0,0-3.68.38c-3.42.64-4.43,2.79-4.69,7.23-.25,4.06-.25,7.6-.25,26.87v22.32c0,11.66,0,21.68.64,27.13.37,3.55,1.13,6.34,4.94,6.84a52,52,0,0,0,6.46.51c1.4,0,2,.38,2,1,0,.89-1,1.27-2.54,1.27-8.23,0-16.22-.38-19.77-.38-2.92,0-10.91.38-15.85.38-1.77,0-2.66-.38-2.66-1.27,0-.63.51-1,2-1a20.25,20.25,0,0,0,4.56-.51c2.53-.5,3.17-3.29,3.68-7,.63-5.32.63-15.34.63-27V356.12a.73.73,0,0,0-.76-.76H235.33a.67.67,0,0,0-.76.76v11.16c0,11.66,0,21.68.64,27.13.38,3.55,1.14,6.34,4.94,6.84a52.16,52.16,0,0,0,6.47.51c1.39,0,2,.38,2,1,0,.89-1,1.27-2.53,1.27-8.24,0-16.23-.38-19.78-.38-2.91,0-10.9.38-16,.38-1.65,0-2.54-.38-2.54-1.27,0-.63.51-1,2-1a20.17,20.17,0,0,0,4.56-.51c2.54-.5,3.17-3.29,3.68-7,.63-5.32.63-15.34.63-27V345c0-19.27,0-22.81-.25-26.87-.25-4.31-1.27-6.34-5.45-7.23a26.33,26.33,0,0,0-4.94-.38c-1.4,0-2.16-.25-2.16-1.14s.89-1.14,2.66-1.14c6.85,0,14.84.38,18.26.38,3,0,11-.38,16-.38,1.78,0,2.67.25,2.67,1.14s-.77,1.14-2.28,1.14a22.9,22.9,0,0,0-3.68.38c-3.43.64-4.44,2.79-4.7,7.23-.25,4.06-.25,7.6-.25,26.87v2.67c0,.63.38.88.76.88Z" transform="translate(-25 -18.56)"/>
      <path d="M353.15,371c-.63,0-.88.26-1.13,1l-6.85,18.13a24.52,24.52,0,0,0-1.9,7.73c0,2.28,1.14,3.93,5.07,3.93h1.9c1.53,0,1.9.26,1.9,1,0,1-.76,1.27-2.15,1.27-4.06,0-9.51-.38-13.44-.38-1.4,0-8.37.38-15,.38-1.65,0-2.41-.25-2.41-1.27,0-.75.51-1,1.52-1a37.47,37.47,0,0,0,3.93-.25c5.83-.76,8.25-5.08,10.77-11.41l31.83-79.62c1.52-3.67,2.28-5.07,3.55-5.07s1.9,1.14,3.17,4.06c3,7,23.32,58.7,31.44,78,4.81,11.41,8.5,13.18,11.15,13.81a27.19,27.19,0,0,0,5.33.51c1,0,1.65.13,1.65,1s-1.14,1.27-5.83,1.27-13.83,0-24-.25c-2.29-.13-3.81-.13-3.81-1s.51-1,1.78-1.13a2.07,2.07,0,0,0,1.13-2.92l-10.14-26.88a1.21,1.21,0,0,0-1.26-.89ZM379,364.61c.63,0,.76-.38.63-.75l-11.41-31.32c-.12-.51-.25-1.14-.63-1.14s-.64.63-.76,1.14l-11.66,31.19c-.13.5,0,.88.5.88Z" transform="translate(-25 -18.56)"/>
      <path d="M411.43,320.62c-2.92-7-5.07-8.36-9.63-9.63a19.48,19.48,0,0,0-4.95-.51c-1.13,0-1.52-.38-1.52-1.14,0-1,1.4-1.14,3.3-1.14,6.72,0,13.94.38,18.38.38,3.17,0,9.25-.38,15.59-.38,1.53,0,2.92.25,2.92,1.14s-.76,1.14-1.9,1.14c-2,0-3.93.13-4.95.89a3,3,0,0,0-1.26,2.66c0,1.65,1.14,5.2,2.91,9.76l21.81,57.56h.5c5.46-14,21.94-54.77,25-63.14a15.59,15.59,0,0,0,1.14-4.69,2.42,2.42,0,0,0-1.65-2.4,16.76,16.76,0,0,0-5.07-.64c-1.13,0-2.15-.12-2.15-1s1.14-1.27,3.54-1.27c6.34,0,11.67.38,13.32.38,2.15,0,8.12-.38,11.91-.38,1.65,0,2.67.25,2.67,1.14s-.77,1.14-2,1.14a11,11,0,0,0-6.22,1.52c-1.64,1.14-3.55,3.3-7,11.41-4.94,11.92-8.36,18.76-15.2,34.36-8.12,18.51-14.08,32.33-16.87,38.66-3.3,7.36-4.06,9.39-5.84,9.39s-2.4-1.78-4.81-7.74Z" transform="translate(-25 -18.56)"/>
      <path d="M525,345c0-19.27,0-22.81-.25-26.87-.26-4.31-1.52-6.47-4.31-7.1a18.1,18.1,0,0,0-4.57-.51c-1.27,0-2-.25-2-1.26,0-.77,1-1,3-1,4.82,0,12.8.38,16.48.38,3.17,0,10.65-.38,15.47-.38,1.64,0,2.65.25,2.65,1,0,1-.75,1.26-2,1.26a21.69,21.69,0,0,0-3.8.38c-3.43.64-4.44,2.79-4.7,7.23-.25,4.06-.25,7.6-.25,26.87v22.32c0,12.29,0,22.31.51,27.76.37,3.43,1.27,5.71,5.07,6.21a52,52,0,0,0,6.46.51c1.4,0,2,.38,2,1,0,.89-1,1.27-2.41,1.27-8.36,0-16.35-.38-19.77-.38-2.92,0-10.9.38-16,.38-1.65,0-2.53-.38-2.53-1.27,0-.63.5-1,2-1a20.27,20.27,0,0,0,4.57-.51c2.54-.5,3.3-2.66,3.67-6.34.64-5.32.64-15.34.64-27.63Z" transform="translate(-25 -18.56)"/>
      <path d="M563.26,356.12c0-21.68,14.32-49.7,52.36-49.7,31.57,0,51.22,18.39,51.22,47.42s-20.28,52-52.49,52C578,405.82,563.26,378.56,563.26,356.12Zm85.83,2.41c0-28.4-16.36-46-37.15-46-14.58,0-31.18,8.11-31.18,39.68,0,26.37,14.58,47.29,38.92,47.29C628.55,399.48,649.09,395.17,649.09,358.53Z" transform="translate(-25 -18.56)"/>
      <path d="M687.21,345c0-19.27,0-22.81-.26-26.87-.24-4.31-1.26-6.34-5.44-7.23a26.41,26.41,0,0,0-4.94-.38c-1.4,0-2.17-.25-2.17-1.14s.9-1.14,2.8-1.14c6.71,0,14.7.38,17.37.38,4.3,0,13.94-.38,17.87-.38,8,0,16.48.76,23.33,5.45,3.55,2.41,8.61,8.88,8.61,17.37,0,9.38-3.92,18-16.73,28.4,11.29,14.2,20,25.48,27.51,33.34,7.1,7.35,12.3,8.24,14.2,8.62a19.38,19.38,0,0,0,3.55.38c1,0,1.52.38,1.52,1,0,1-.89,1.27-2.41,1.27H760c-7.1,0-10.27-.63-13.57-2.4-5.45-2.92-10.26-8.88-17.36-18.64-5.07-7-10.91-15.6-12.56-17.5a2.64,2.64,0,0,0-2.28-.89l-11-.25c-.63,0-1,.25-1,1v1.77c0,11.79,0,21.81.64,27.13.37,3.68,1.14,6.47,4.94,7a56.67,56.67,0,0,0,6.21.51c1,0,1.52.38,1.52,1,0,.89-.89,1.27-2.53,1.27-7.36,0-16.74-.38-18.64-.38-2.41,0-10.4.38-15.47.38-1.64,0-2.54-.38-2.54-1.27,0-.63.52-1,2-1a20.25,20.25,0,0,0,4.56-.51c2.54-.5,3.17-3.29,3.68-7,.63-5.32.63-15.34.63-27Zm15,10c0,1.39.26,1.9,1.14,2.28a33.31,33.31,0,0,0,9.64,1.27c5.07,0,6.72-.51,9-2.16,3.8-2.79,7.48-8.61,7.48-19,0-18-11.92-23.2-19.4-23.2a27.82,27.82,0,0,0-6.72.51c-.88.25-1.14.76-1.14,1.77Z" transform="translate(-25 -18.56)"/>
    </g>
  </g>
</svg>
